<svg class="icon" viewBox="0 0 1024 1024" xmlns="http://www.w3.org/2000/svg" width="200" height="200"><defs><style/></defs><path d="M740 414.4c-.16-.48-.16-.96-.32-1.44-.96-3.52-2.56-6.88-5.12-9.76-.32-.48-.8-.8-1.28-1.12-.16-.16-.32-.48-.48-.64l-38.4-35.2c-9.76-8.96-24.96-8.32-33.92 1.44-7.04 7.68-8.16 18.72-3.52 27.36h-64.64c-35.52 0-68 15.84-86.88 40.48-18.88-16.64-45.12-27.04-73.92-27.04H307.36c-13.28 0-24 10.72-24 24s10.72 24 24 24h124.16c30.56 0 56.48 20 56.48 43.68 0 7.84 3.84 14.88 9.76 19.2-5.92 4.32-9.76 11.36-9.76 19.2s1.28 15.52 3.52 22.72c-4 1.76-7.68 4.48-10.4 8.16-10.08 14.24-29.12 23.2-49.6 23.2H307.36c-13.28 0-24 10.72-24 24s10.72 24 24 24h124.16c34.56 0 66.24-14.88 85.76-39.68 19.04 16.96 45.6 27.68 75.04 27.68h64.64c-4.64 8.64-3.52 19.68 3.52 27.36 4.8 5.12 11.2 7.84 17.76 7.84 5.76 0 11.68-2.08 16.16-6.24l38.4-35.2c.32-.16.32-.48.64-.8.32-.32.8-.64 1.12-.96.96-1.12 1.92-2.4 2.72-3.68 0-.16.16-.16.16-.16 1.12-1.92 1.76-3.84 2.24-5.92.16-.48.16-.96.32-1.44.48-2.08.64-4.16.48-6.24v-.48c-.16-1.92-.64-4-1.28-5.76-.16-.32-.16-.64-.16-.8-.16-.16-.16-.32-.32-.64-.8-1.92-1.76-3.68-3.2-5.44-.32-.32-.64-.64-.8-.96-.64-.8-1.28-1.6-2.08-2.4l-38.4-34.08a24.048 24.048 0 00-37.76 28.16h-64c-30.56 0-56.48-19.2-56.48-42.08 0-7.84-3.84-14.88-9.76-19.2 5.92-4.32 9.76-11.36 9.76-19.2 0-6.08-.64-12.16-2.08-17.92 1.6-2.08 2.72-4.32 3.68-6.88 6.24-18.72 29.28-32.32 54.88-32.32h64c-3.84 8.48-2.72 18.72 3.84 26.08 4.8 5.28 11.36 8 17.92 8 5.6 0 11.36-2.08 16-6.08l38.4-34.08c.8-.8 1.6-1.6 2.24-2.4.16-.32.48-.48.64-.8 1.28-1.76 2.4-3.52 3.2-5.6 0-.16.16-.32.32-.48.16-.32.16-.48.16-.8.64-1.92 1.12-4 1.28-6.08v-.32c.16-2.08 0-4.16-.48-6.24z" fill="#666"/><path d="M512 65.12C265.6 65.12 65.12 265.6 65.12 512S265.6 958.88 512 958.88 958.88 758.4 958.88 512 758.4 65.12 512 65.12zm0 845.76C292.16 910.88 113.12 732 113.12 512c0-219.84 179.04-398.88 398.88-398.88C732 113.12 910.88 292 910.88 512S732 910.88 512 910.88z" fill="#666"/></svg>